<svg width="256" height="256" viewBox="0 0 256 256" fill="none" xmlns="http://www.w3.org/2000/svg">
  <defs>
    <linearGradient id="grad1" x1="0" y1="0" x2="0" y2="1">
      <stop offset="0%" stop-color="#6BE080"/>
      <stop offset="100%" stop-color="#33A653"/>
    </linearGradient>
  </defs>

  <!-- Droplet -->
  <path d="M128 20C128 20 60 96 60 148C60 192 90 236 128 236C166 236 196 192 196 148C196 96 128 20 128 20Z"
        fill="url(#grad1)"/>

  <!-- Leaf accents -->
  <path d="M96 150C78 150 66 164 66 178C66 203 93 214 111 198C121 189 124 175 121 165C118 155 108 150 96 150Z"
        fill="#4CC66A" opacity="0.7"/>
  <path d="M160 150C172 150 182 155 185 165C188 175 185 189 175 198C157 214 130 203 130 178C130 164 142 150 160 150Z"
        fill="#4CC66A" opacity="0.7"/>
</svg>
